<?xml version="1.0" encoding="utf-8"?>
<!-- Generator: Adobe Illustrator 28.3.0, SVG Export Plug-In . SVG Version: 6.00 Build 0)  -->
<svg version="1.1" id="visage" xmlns="http://www.w3.org/2000/svg" xmlns:xlink="http://www.w3.org/1999/xlink" x="0px" y="0px"
	 viewBox="0 0 1280 720" style="enable-background:new 0 0 1280 720;" xml:space="preserve">
<path fill="#FFFFFF" d="M1278.53,636.82c-0.15-0.68-14.96-68.41-31.78-78.01c-5.52-3.15-16.92-1.73-30.12-0.08c-20.17,2.52-45.26,5.66-61.02-7
	c-14.87-9.45-14.25-30.93-13.84-45.15c0.06-2.23,0.12-4.34,0.11-6.09c-0.03-3.69-1.56-7.19-4.29-9.87
	c-4.76-4.66-9.88-12.14-7.76-21.63c-7.31-7.31-4.79-16.32-2.35-25.04c2.19-7.83,4.46-15.91-0.01-23.25
	c-14.6-6.27-24.37-11-27.18-18.67c-1.49-4.07-0.88-8.71,1.86-14.19l0.06-0.11c3.1-5.07,7.19-9.98,11.53-15.18
	c11.43-13.7,24.37-29.22,27.24-56.01c-6.56-44.28-3.37-83.7,9.47-117.17c10.31-26.86,26.81-49.95,49.05-68.64
	c37.83-31.79,79.8-39.88,80.22-39.96l0.55,2.95c-0.41,0.08-41.7,8.06-78.93,39.39c-34.3,28.86-72.09,84.07-57.36,183.19l0.03,0.19
	l-0.02,0.19c-2.92,27.81-16.79,44.44-27.94,57.81c-4.25,5.09-8.26,9.9-11.24,14.76c-2.33,4.68-2.88,8.53-1.7,11.76
	c2.43,6.62,11.86,11.08,25.98,17.13l0.42,0.18l0.25,0.39c5.52,8.57,2.91,17.87,0.62,26.07c-2.47,8.84-4.61,16.47,2.13,22.64
	l0.67,0.61l-0.23,0.88c-2.27,8.5,2.42,15.34,6.75,19.59c3.31,3.24,5.15,7.5,5.2,11.99c0.02,1.81-0.04,3.94-0.11,6.2
	c-0.39,13.56-0.98,34.06,12.52,42.57l0.14,0.1c14.76,11.92,39.19,8.87,58.83,6.41c13.73-1.71,25.58-3.2,31.97,0.45
	c17.98,10.26,32.61,77.14,33.22,79.99L1278.53,636.82z"/>
</svg>
